<svg width="200" height="200" viewBox="0 0 200 200" xmlns="http://www.w3.org/2000/svg">
    <!-- Main circular backgrounds -->
    <circle cx="100" cy="100" r="90" fill="#4F8BF9" opacity="0.1"/>
    <circle cx="100" cy="100" r="70" fill="#4F8BF9" opacity="0.2"/>
    <circle cx="100" cy="100" r="50" fill="#4F8BF9" opacity="0.3"/>
    
    <!-- Spider web pattern representing data connections -->
    <g stroke="#4F8BF9" stroke-width="1.5" opacity="0.5">
        <!-- Radial lines -->
        <line x1="100" y1="100" x2="100" y2="10" />
        <line x1="100" y1="100" x2="163" y2="37" />
        <line x1="100" y1="100" x2="190" y2="100" />
        <line x1="100" y1="100" x2="163" y2="163" />
        <line x1="100" y1="100" x2="100" y2="190" />
        <line x1="100" y1="100" x2="37" y2="163" />
        <line x1="100" y1="100" x2="10" y2="100" />
        <line x1="100" y1="100" x2="37" y2="37" />
        
        <!-- Concentric circles -->
        <circle cx="100" cy="100" r="30" fill="none" />
        <circle cx="100" cy="100" r="60" fill="none" />
    </g>
    
    <!-- Data nodes -->
    <g fill="#4F8BF9">
        <circle cx="100" cy="10" r="4" />
        <circle cx="163" cy="37" r="4" />
        <circle cx="190" cy="100" r="4" />
        <circle cx="163" cy="163" r="4" />
        <circle cx="100" cy="190" r="4" />
        <circle cx="37" cy="163" r="4" />
        <circle cx="10" cy="100" r="4" />
        <circle cx="37" cy="37" r="4" />
        
        <!-- Inner data points -->
        <circle cx="115" cy="75" r="3" />
        <circle cx="75" cy="85" r="3" />
        <circle cx="125" cy="125" r="3" />
        <circle cx="80" cy="135" r="3" />
        <circle cx="60" cy="110" r="3" />
    </g>
    
    <!-- Magnifying glass representing search/scraping -->
    <g>
        <circle cx="140" cy="60" r="25" fill="none" stroke="#4F8BF9" stroke-width="6" />
        <line x1="122" y1="78" x2="100" y2="100" stroke="#4F8BF9" stroke-width="6" />
    </g>
    
    <!-- AI/Brain icon representing intelligence -->
    <g fill="#4F8BF9">
        <circle cx="70" cy="70" r="20" opacity="0.7" />
        <path d="M60,70 C60,65 65,55 70,55 C75,55 80,65 80,70" stroke="#FFFFFF" stroke-width="2" fill="none" />
        <path d="M65,65 L65,75 M75,65 L75,75" stroke="#FFFFFF" stroke-width="2" />
    </g>
    
    <!-- Document/Data icon -->
    <g>
        <rect x="55" y="110" width="30" height="40" rx="2" fill="#4F8BF9" opacity="0.7" />
        <line x1="60" y1="120" x2="80" y2="120" stroke="#FFFFFF" stroke-width="2" />
        <line x1="60" y1="130" x2="80" y2="130" stroke="#FFFFFF" stroke-width="2" />
        <line x1="60" y1="140" x2="75" y2="140" stroke="#FFFFFF" stroke-width="2" />
    </g>
    
    <!-- Central hub -->
    <circle cx="100" cy="100" r="15" fill="#4F8BF9" />
    <circle cx="100" cy="100" r="10" fill="#FFFFFF" opacity="0.3" />
    
    <!-- Pulsing effect -->
    <circle cx="100" cy="100" r="8" fill="#FFFFFF" opacity="0.5">
        <animate attributeName="r" values="8;12;8" dur="2s" repeatCount="indefinite" />
        <animate attributeName="opacity" values="0.5;0.2;0.5" dur="2s" repeatCount="indefinite" />
    </circle>
</svg>
